<svg version="1.1" xmlns="http://www.w3.org/2000/svg" xmlns:xlink="http://www.w3.org/1999/xlink" width="140" height="140"><defs/><g transform="translate(20,20)"><path fill="white" stroke="none" paint-order="stroke fill markers" d=" M 110 50 A 60 60 0 1 1 109.99997000000249 49.94000000999996"/><path fill="none" stroke="rgb(150,150,150)" paint-order="fill stroke markers" d=" M 40 15 L 75 15 Q 80 15 80 20 L 80 75 Q 80 80 75 80 L 40 80 Q 35 80 35 75 L 35 20 Q 35 15 40 15" stroke-linejoin="round" stroke-miterlimit="10" stroke-width="5" stroke-dasharray=""/><path fill="rgb(255,255,255)" stroke="none" paint-order="stroke fill markers" d=" M 42.5 17.5 L 72.5 17.5 Q 77.5 17.5 77.5 22.5 L 77.5 72.5 Q 77.5 77.5 72.5 77.5 L 42.5 77.5 Q 37.5 77.5 37.5 72.5 L 37.5 22.5 Q 37.5 17.5 42.5 17.5"/><path fill="none" stroke="rgb(150,150,150)" paint-order="fill stroke markers" d=" M 25 25 L 60 25 Q 65 25 65 30 L 65 85 Q 65 90 60 90 L 25 90 Q 20 90 20 85 L 20 30 Q 20 25 25 25" stroke-linejoin="round" stroke-miterlimit="10" stroke-width="5" stroke-dasharray="10,5"/><path fill="rgb(255,255,255)" stroke="none" paint-order="stroke fill markers" d=" M 27.5 27.5 L 57.5 27.5 Q 62.5 27.5 62.5 32.5 L 62.5 82.5 Q 62.5 87.5 57.5 87.5 L 27.5 87.5 Q 22.5 87.5 22.5 82.5 L 22.5 32.5 Q 22.5 27.5 27.5 27.5"/></g></svg>