<svg version="1.1" xmlns="http://www.w3.org/2000/svg" xmlns:xlink="http://www.w3.org/1999/xlink" width="100" height="100"><defs/><g><path fill="none" stroke="#000000" paint-order="fill stroke markers" d=" M 54 12 L 73 12 Q 81 12 81 20 L 81 54 Q 81 62 73 62 L 54 62 Q 46 62 46 54 L 46 20 Q 46 12 54 12" stroke-miterlimit="10" stroke-width="3" stroke-dasharray=""/><path fill="white" stroke="#000000" paint-order="stroke fill markers" d=" M 34 22 L 53 22 Q 61 22 61 30 L 61 64 Q 61 72 53 72 L 34 72 Q 26 72 26 64 L 26 30 Q 26 22 34 22" stroke-miterlimit="10" stroke-width="6" stroke-dasharray="5,4"/><path fill="none" stroke="#000000" paint-order="fill stroke markers" d=" M 10 80 L 10 85 Q 10 90 15 90 L 85 90 Q 90 90 90 85 L 90 80" stroke-linecap="round" stroke-linejoin="round" stroke-miterlimit="10" stroke-width="4"/></g></svg>